<?xml version="1.0" encoding="utf-8"?>
<!-- Generator: Adobe Illustrator 15.1.0, SVG Export Plug-In . SVG Version: 6.00 Build 0)  -->
<!DOCTYPE svg PUBLIC "-//W3C//DTD SVG 1.1//EN" "http://www.w3.org/Graphics/SVG/1.1/DTD/svg11.dtd">
<svg version="1.1" id="Layer_1" xmlns="http://www.w3.org/2000/svg" xmlns:xlink="http://www.w3.org/1999/xlink" x="0px" y="0px"
	 width="150px" height="210px" viewBox="155 330 150 210" enable-background="new 0 0 841.89 595.28" xml:space="preserve">
<path fill="#CACEB3" d="M124.821,413.347c-0.539-7.876-1.73-13.096-2.712-16.305c-1.001-3.208-1.776-4.442-1.776-4.442
	s0.77,1.226,3.235,3.534c2.456,2.323,6.572,5.732,13.196,10.401c6.62,4.661,13.769,14.367,18.735,26.06
	c5.023,11.657,7.817,25.216,6.791,36.844c0,0-0.197,1.109-0.342,2.791c-0.162,1.688-0.273,3.946-0.066,6.247
	c-1.291-1.928-2.795-3.6-3.973-4.784c-1.197-1.178-2.068-1.873-2.068-1.873c-8.237-8.038-15.473-18.809-21.055-29.424
	C129.261,431.76,125.36,421.227,124.821,413.347"/>
<path fill="#B4B397" d="M191.411,404.2c0,0,1.841-6.717,2.544-8.665c0.704-1.947,2.453-6.402,2.439-7.357
	c-0.012-0.955,0.608,1.256,0.608,1.256s-1.874,4.757-2.175,5.832c-0.301,1.075-3.164,11.201-3.164,11.201L191.411,404.2z"/>
<path fill="#B4B397" d="M186.608,383.837c0,0,3.448,6.095,3.988,10.022l0.031-3.122c0,0-2.993-7.094-3.625-8.087
	C186.372,381.658,186.608,383.837,186.608,383.837"/>
<path fill="#B4B397" d="M185.907,414.489c0,0,3.925,7.928,4.465,11.856l0.535-3.627c0,0-3.974-8.422-4.605-9.415
	C185.671,412.31,185.907,414.489,185.907,414.489"/>
<path fill="#B4B397" d="M186.043,346.978c0,0,3.917,10.249,4.55,23.495c0.632,13.246-1.37,26.847,0.25,37.623
	c1.622,10.777-3.058,29.865-3.058,29.865l0.919,0.306c0,0,3.258-14.347,3.53-21.228c0.273-6.88-0.835-26.604-0.972-28.889
	c-0.136-2.283,1.295-17.025,0.317-21.825c-0.978-4.801-3.093-16.609-4.024-19.534C186.624,343.866,186.043,346.978,186.043,346.978"
	/>
<path fill="#DAD4A0" d="M182.178,366.333c-6.019-10.168-17.235-11.099-17.235-11.099c5.732,4.18,9.677,10.349,13.05,16.473
	c1.588,2.884,2.893,5.853,5.022,8.388c0.936,1.113,1.932,2.179,2.957,3.21c0.202,0.202,1.303,0.998,1.325,1.29
	c0,0-0.573-7.701-1.989-11.857C183.892,368.582,182.178,366.333,182.178,366.333"/>
<path fill="#DAD4A0" d="M196.401,389.858c0,0-3.23-7.115,0.289-15.681c3.518-8.565,7.309-12.229,11.268-15.389
	c0,0-3.282,8.868-3.983,14.006C203.274,377.933,201.368,386.698,196.401,389.858"/>
<path fill="#DAD4A0" d="M186.383,415.095c0,0,2.265-7.479-2.351-15.507c-4.616-8.026-8.856-11.158-13.197-13.77
	c0,0,4.422,8.357,5.793,13.358C178,404.178,181.043,412.615,186.383,415.095"/>
<path fill="#DAD4A0" d="M189.895,359.947c0,0-4.284-2.767-5.549-10.068c-1.266-7.302,2.256-11.334,2.354-15.162
	c0,0,4.134,5.402,3.333,11.514C189.233,352.343,189.895,359.947,189.895,359.947"/>
<path fill="#B4B397" d="M189.721,430.156c0,0,4.628-5.876,6.639-10.885c2.011-5.007,2.815-5.945,2.815-5.945l0.303,1.107
	c0,0-2.295,5.393-3.25,7.425c-0.956,2.032-6.211,9.516-6.467,10.157C189.505,432.658,189.721,430.156,189.721,430.156"/>
<path fill="#DAD4A0" d="M205.251,404.867c-1.313,3.018-2.336,6.095-4.222,8.817c-0.829,1.195-1.721,2.348-2.646,3.47
	c-0.182,0.221-1.205,1.114-1.2,1.407c0,0-0.144-7.722,0.88-11.99c1.025-4.27,2.523-6.667,2.523-6.667
	c5.05-10.684,16.131-12.65,16.131-12.65C211.398,391.948,208.042,398.455,205.251,404.867"/>
<path fill="#8A977D" d="M171.091,454.874c-2.499,3.493-4.758,6.075-6.583,8.235c-1.837,2.145-3.286,3.825-4.371,5.171
	c-2.18,2.675-2.915,3.985-2.915,3.985s0.741-1.318,1.779-4.597c0.511-1.638,1.102-3.768,1.586-6.445
	c0.468-2.669,0.871-5.906,0.7-9.55c-0.067-1.771-0.141-3.72-0.221-5.831c-0.102-2.038-0.296-4.162-0.577-6.488
	c-0.549-4.633-1.622-10.051-2.692-16.261c-0.525-3.098-1.025-6.397-1.328-9.832c-0.313-3.454-0.385-7.127-0.051-10.668
	c0.617-7.081,2.951-14.141,7.017-18.929c0,0,0.823-0.836,2.067-2.1c1.266-1.237,3.029-2.764,4.887-4.218
	c-1.23,2.047-1.822,4.177-2.042,5.732c-0.194,1.578-0.15,2.564-0.15,2.564c-0.182,5.272,0.646,10.681,1.903,16.307
	c0.632,2.827,1.374,5.609,2.186,8.562c0.808,2.971,1.643,6.045,2.369,9.228c1.456,6.334,2.406,13.206,1.787,19.655
	c-0.297,3.203-0.965,6.276-1.936,8.911C173.546,450.941,172.344,453.13,171.091,454.874"/>
<path fill="#BAC697" d="M175.793,443.724c-0.848,1.517-1.699,3.03-2.555,4.542c-6.085,10.752-14.245,20.522-17.96,32.48
	c-3.014,9.698-5.898,25.316,2.403,33.335c0,0,23.205,0.874,33.148-24.51c6.975-17.807,10.846-53.867,2.792-79.396
	C187.938,421.487,181.972,432.67,175.793,443.724"/>
<path fill="#A0B17A" d="M187.255,443.887c0.702-2.781,1.28-5.394,1.752-7.852c1.553-7.098,3.508-16.449,3.412-18.125l-4.099,15.926
	c-0.015-0.011-0.033-0.016-0.048-0.028c-0.101,0.486-0.216,0.982-0.323,1.474l-3.182,12.363
	c-9.33,31.858-27.085,66.437-27.085,66.437c16.516-30.355,25.198-53.031,29.471-69.778l0.011-0.017
	C187.164,444.286,187.198,444.137,187.255,443.887"/>
<path fill="#85996B" d="M184.676,434.744c-0.237-0.439-0.47-0.889-0.703-1.358c-0.773-1.565-1.152-3.197-1.516-4.821
	c-1.516-0.577-3.258-0.633-4.562-1.595c-0.472-0.349-0.875-0.811-1.421-1.023c-0.265-0.104-0.55-0.142-0.831-0.188
	c-0.744-0.127-1.473-0.333-2.181-0.594c0.046-0.181,0.09-0.367,0.136-0.55c0.809,0.316,1.623,0.617,2.448,0.888
	c0.433,0.142,0.873,0.279,1.254,0.527c0.324,0.212,0.594,0.496,0.91,0.719c1.19,0.844,2.826,0.71,4.146,1.365
	c-0.24-1.075-0.489-2.145-0.854-3.186c-0.653-1.86-1.046-3.748-1.969-5.499c-0.279-0.529-1.69-2.229-2.737-3.597
	c-0.364-0.476-0.685-0.912-0.898-1.245c0.175-0.093,0.345-0.194,0.508-0.303c0.878,1.374,2.35,2.667,3.726,5.044
	c0.122-0.08,0.268-0.2,0.401-0.389c0.286-0.411,0.162-2.929,0.666-4.517c0.099-0.313,0.208-0.572,0.318-0.793
	c0.076,0.085,0.152,0.168,0.232,0.247c-0.097,0.148-0.172,0.286-0.199,0.395c-0.115,0.467-0.517,2.704-0.473,2.943
	c0.042,0.226-0.075,2.119-0.75,2.459c0.944,1.718,1.828,3.979,2.419,7.177c0.263,1.424,0.573,2.675,0.905,3.802
	c0.067-0.063,0.138-0.125,0.201-0.19c0.284-0.297,0.446-0.686,0.603-1.065c0.243-0.588,0.485-1.175,0.727-1.762
	c0.337-0.818,0.675-1.639,0.899-2.494c0.12-0.459,0.207-0.928,0.353-1.38c0.472-1.455,1.591-2.688,2.995-3.301
	c0.32,0.472-0.01,1.133-0.466,1.474c-0.457,0.341-1.029,0.515-1.451,0.898c-0.725,0.657-0.826,1.731-1.055,2.683
	c-0.231,0.956-0.633,1.861-1.033,2.761c-0.409,0.919-0.818,1.838-1.227,2.757c-0.072,0.162-0.167,0.331-0.291,0.452
	c1.729,5.328,3.933,7.137,3.933,7.137c-0.332,0.699-0.668,0.29-0.668,0.29c-0.343-0.418-0.605-0.943-0.888-1.403
	C185.702,436.564,185.179,435.675,184.676,434.744"/>
<path fill="#ECB08D" d="M184.625,408.11c0.538,0.883,1.07,1.839,1.042,2.871c-0.019,0.663-0.27,1.297-0.577,1.885
	c-0.375,0.714-0.856,1.402-1.542,1.827c-1.351,0.837-3.092,0.463-4.629,0.063c-0.469-0.123-0.937-0.244-1.406-0.366
	c-0.349-0.092-0.705-0.185-1.009-0.38c-0.906-0.58-1.067-1.818-1.091-2.894c-0.039-1.759,0.161-3.752,1.538-4.847
	c0.771-0.613,1.783-0.824,2.762-0.942c0.74-0.089,1.507-0.132,2.213,0.104C183.153,405.844,183.951,407.004,184.625,408.11"/>
<path fill="#ECB08D" d="M202.064,428.052c0.538,0.882,1.07,1.839,1.042,2.872c-0.018,0.661-0.27,1.296-0.577,1.884
	c-0.374,0.715-0.856,1.401-1.542,1.827c-1.351,0.836-3.092,0.463-4.63,0.062c-0.469-0.121-0.937-0.243-1.405-0.366
	c-0.35-0.09-0.706-0.185-1.009-0.379c-0.906-0.58-1.068-1.818-1.092-2.894c-0.038-1.759,0.161-3.752,1.538-4.846
	c0.771-0.614,1.784-0.825,2.763-0.943c0.739-0.089,1.507-0.133,2.214,0.104C200.593,425.784,201.39,426.945,202.064,428.052"/>
<path fill="#ECB08D" d="M196.456,416.559c0.537,0.883,1.07,1.839,1.042,2.871c-0.018,0.663-0.27,1.297-0.577,1.885
	c-0.374,0.715-0.856,1.402-1.542,1.827c-1.351,0.837-3.092,0.464-4.63,0.063c-0.469-0.122-0.937-0.245-1.405-0.366
	c-0.35-0.091-0.706-0.185-1.01-0.38c-0.906-0.579-1.067-1.818-1.091-2.894c-0.038-1.759,0.161-3.752,1.538-4.846
	c0.771-0.614,1.784-0.824,2.763-0.943c0.739-0.088,1.507-0.132,2.213,0.104C194.984,414.292,195.781,415.451,196.456,416.559"/>
<path fill="#ECB08D" d="M169.306,418.644c-0.744-1.38-1.002-3.153-0.275-4.464c0.994-1.793,3.61-2.057,5.434-1.836
	c1.144,0.139,2.277,0.61,3.043,1.47c1.761,1.978,0.469,5.854-1.653,7.115c-1.615,0.959-4.12,0.302-5.451-0.869
	C169.981,419.688,169.604,419.197,169.306,418.644"/>
<path fill="#ECB08D" d="M183.973,433.372c-0.745-1.38-1.002-3.154-0.275-4.465c0.993-1.792,3.61-2.057,5.434-1.836
	c1.143,0.139,2.277,0.609,3.042,1.47c1.761,1.978,0.469,5.854-1.653,7.115c-1.615,0.959-4.12,0.302-5.451-0.869
	C184.647,434.416,184.271,433.925,183.973,433.372"/>
<path fill="#ECB08D" d="M169.689,428.735c-0.745-1.381-1.002-3.154-0.275-4.465c0.993-1.792,3.61-2.057,5.434-1.836
	c1.143,0.139,2.277,0.61,3.042,1.47c1.761,1.978,0.47,5.854-1.653,7.115c-1.615,0.96-4.12,0.302-5.451-0.869
	C170.364,429.778,169.987,429.289,169.689,428.735"/>
<path fill="#C3A56B" d="M176.12,323.977c0,0.893,0.724,1.618,1.618,1.618c0.893,0,1.618-0.726,1.618-1.618
	c0-0.894-0.725-1.618-1.618-1.618C176.844,322.358,176.12,323.083,176.12,323.977"/>
<path fill="#ECB08D" d="M305.378,498.038c0,0.894,0.725,1.618,1.618,1.618s1.618-0.725,1.618-1.618s-0.725-1.618-1.618-1.618
	S305.378,497.145,305.378,498.038"/>
<path fill="#C3A56B" d="M183.453,328.199c0,0.547,0.443,0.989,0.989,0.989c0.547,0,0.99-0.442,0.99-0.989s-0.443-0.99-0.99-0.99
	C183.896,327.209,183.453,327.652,183.453,328.199"/>
<path fill="#ECB08D" d="M313.058,494.803c0,0.547,0.442,0.989,0.989,0.989s0.989-0.442,0.989-0.989s-0.442-0.99-0.989-0.99
	S313.058,494.256,313.058,494.803"/>
<path fill="#ECB08D" d="M294.208,480.377c0,0.546,0.443,0.989,0.99,0.989c0.547,0,0.99-0.443,0.99-0.989
	c0-0.547-0.443-0.99-0.99-0.99C294.651,479.387,294.208,479.83,294.208,480.377"/>
<path fill="#C3A56B" d="M184.899,498.883c0,0.548,0.443,0.99,0.99,0.99c0.546,0,0.989-0.442,0.989-0.99
	c0-0.546-0.443-0.989-0.989-0.989C185.342,497.894,184.899,498.337,184.899,498.883"/>
<path fill="#B4B397" d="M228.223,499.588c0,0,6.312-2.942,8.253-3.667c1.94-0.724,6.468-2.272,7.188-2.9
	c0.721-0.627-0.563,1.276-0.563,1.276s-4.84,1.649-5.854,2.115s-10.586,4.836-10.586,4.836L228.223,499.588z"/>
<path fill="#B4B397" d="M240.642,482.75c0,0-2.416,6.571-5.062,9.525l2.401-1.997c0,0,3.472-6.872,3.82-7.995
	C242.15,481.159,240.642,482.75,240.642,482.75"/>
<path fill="#B4B397" d="M216.817,502.05c0,0-3.505,8.121-6.15,11.075l3.111-1.939c0,0,3.851-8.479,4.199-9.604
	C218.325,500.459,216.817,502.05,216.817,502.05"/>
<path fill="#B4B397" d="M268.379,458.471c0,0-5.281,9.617-14.97,18.67c-9.69,9.054-21.355,16.326-28.523,24.535
	c-7.168,8.209-24.751,16.991-24.751,16.991l0.362,0.899c0,0,13.047-6.799,18.469-11.043c5.423-4.244,19.745-17.853,21.397-19.434
	c1.653-1.581,13.819-10.027,16.846-13.88c3.028-3.853,10.663-13.106,12.29-15.708C271.128,456.899,268.379,458.471,268.379,458.471"
	/>
<path fill="#DAD4A0" d="M251.121,468.047c3.859-11.169-2.689-20.322-2.689-20.322c0.522,7.075-1.629,14.074-4.116,20.609
	c-1.17,3.075-2.591,5.991-3.146,9.256c-0.244,1.435-0.411,2.882-0.534,4.332c-0.024,0.284,0.083,1.639-0.127,1.844
	c0,0,5.502-5.42,7.754-9.188C250.516,470.809,251.121,468.047,251.121,468.047"/>
<path fill="#DAD4A0" d="M242.387,494.113c0,0,3.335-7.066,12.142-9.926c8.808-2.859,14.053-2.34,19.024-1.365
	c0,0-8.885,3.235-13.256,6.024C255.927,491.637,248.01,495.854,242.387,494.113"/>
<path fill="#DAD4A0" d="M216.664,502.803c0,0,7.167-3.112,10.301-11.825c3.134-8.714,2.778-13.973,1.96-18.973
	c0,0-3.511,8.779-6.437,13.062C219.562,489.348,215.098,497.127,216.664,502.803"/>
<path fill="#DAD4A0" d="M260.983,469.799c0,0-0.662-5.057,4.086-10.746c4.749-5.689,10.103-5.612,13.084-8.015
	c0,0-1.444,6.647-6.622,9.991C266.354,464.374,260.983,469.799,260.983,469.799"/>
<path fill="#B4B397" d="M207.339,515.095c0,0,7.476-0.274,12.595-1.981c5.119-1.708,6.354-1.7,6.354-1.7l-0.648,0.948
	c0,0-5.596,1.737-7.763,2.324c-2.167,0.587-11.275,1.421-11.93,1.642C205.292,516.548,207.339,515.095,207.339,515.095"/>
<path fill="#DAD4A0" d="M236.67,510.572c-3.151,0.95-6.16,2.162-9.455,2.485c-1.448,0.142-2.904,0.208-4.358,0.228
	c-0.285,0.005-1.629-0.197-1.85-0.004c0,0,5.795-5.105,9.712-7.087c3.918-1.981,6.716-2.39,6.716-2.39
	c11.413-3.063,20.082,4.113,20.082,4.113C250.497,506.899,243.364,508.553,236.67,510.572"/>
<path fill="#89956A" d="M215.776,475.842c-0.451,1.096-0.899,2.193-1.345,3.291c-3.166,7.812-4.928,16.315-9.743,23.372
	c-3.905,5.723-11.03,13.888-18.835,12.851c0,0-10.307-12.03-0.957-28.108c6.56-11.279,24.19-28.64,41.25-35.16
	C222.51,459.921,219.063,467.853,215.776,475.842"/>
<path fill="#596B3D" d="M210.828,469.785c1.189-1.555,2.34-2.972,3.454-4.267c3.135-3.839,7.304-8.851,8.24-9.51l-6.774,8.945
	c0.013,0.003,0.023,0.011,0.036,0.014c-0.217,0.26-0.433,0.532-0.649,0.797l-5.259,6.943
	c-13.071,18.496-24.021,42.647-24.021,42.647c9.22-21.698,17.658-35.954,24.796-45.34l0.004-0.013
	C210.653,470.003,210.718,469.921,210.828,469.785"/>
<path fill="#A6B473" d="M236.45,539.961c-2.051,0.209-4.101,0.424-6.15,0.643c-14.577,1.563-29.062,5.845-43.836,4.258
	c-11.981-1.287-30.351-5.505-35.172-18.323c0,0,9.981-25.685,42.311-24.554c22.679,0.793,63.776,13.566,87.786,34.365
	C266.39,537.211,251.4,538.439,236.45,539.961"/>
<path fill="#889467" d="M241.673,527.4c3.36,0.546,6.477,1.148,9.376,1.792c8.462,1.652,19.568,3.929,21.348,4.823l-19.277-3.04
	c0.005,0.021,0.002,0.045,0.009,0.066c-0.578-0.119-1.172-0.228-1.757-0.343l-14.963-2.359c-39.093-4.849-85.118-1.802-85.118-1.802
	c40.841-3.687,69.628-2.457,89.88,0.778l0.023-0.005C241.195,527.312,241.374,527.345,241.673,527.4"/>
<path fill="#85996B" d="M191.043,506.561c0.227-0.842,0.691-1.617,1.326-2.213c0.131-0.123,0.276-0.233,0.426-0.335
	c-0.046,0.009-0.09,0.025-0.137,0.032c-1.749,0.256-3.413-0.899-5.18-0.945c-0.322-0.009-0.652,0.019-0.958-0.078
	c-0.307-0.097-0.591-0.365-0.579-0.686c1.868,0.608,3.815,0.974,5.776,1.082c0.386,0.021,0.773,0.032,1.156-0.01
	c0.775-0.083,1.515-0.38,2.288-0.477c0.728-0.09,1.54,0.061,2.019,0.6c-0.387-0.603-0.78-1.241-1.146-1.882
	c-0.866-1.516-1.342-3.122-1.802-4.722c-1.547-0.485-3.29-0.436-4.648-1.318c-0.492-0.319-0.922-0.757-1.48-0.937
	c-0.271-0.088-0.558-0.108-0.84-0.14c-0.75-0.081-1.489-0.244-2.212-0.461c0.035-0.184,0.068-0.373,0.103-0.558
	c0.826,0.267,1.657,0.52,2.496,0.739c0.44,0.115,0.888,0.228,1.284,0.452c0.336,0.192,0.623,0.459,0.951,0.663
	c1.239,0.771,2.863,0.539,4.206,1.107c0.005,0.002,0.009,0.005,0.013,0.008c-0.304-1.061-0.615-2.111-1.043-3.129
	c-0.763-1.818-1.27-3.68-2.295-5.372c-0.31-0.512-1.82-2.123-2.947-3.426c-0.392-0.454-0.738-0.87-0.971-1.19
	c0.17-0.103,0.333-0.214,0.49-0.332c0.958,1.319,2.505,2.521,4.021,4.813c0.117-0.087,0.255-0.216,0.376-0.413
	c0.261-0.427-0.014-2.933,0.395-4.548c0.08-0.317,0.173-0.583,0.27-0.811c0.081,0.08,0.162,0.158,0.247,0.233
	c-0.088,0.153-0.155,0.295-0.176,0.405c-0.087,0.473-0.354,2.73-0.296,2.967c0.055,0.222,0.052,2.12-0.602,2.5
	c1.046,1.658,2.063,3.862,2.844,7.02c0.348,1.404,0.732,2.635,1.131,3.738c0.064-0.066,0.13-0.131,0.189-0.201
	c0.265-0.313,0.404-0.711,0.538-1.099c0.207-0.602,0.413-1.202,0.62-1.804c0.288-0.836,0.576-1.676,0.748-2.542
	c0.092-0.466,0.151-0.939,0.269-1.398c0.385-1.481,1.428-2.78,2.792-3.475c0.348,0.451,0.058,1.132-0.377,1.499
	c-0.435,0.368-0.996,0.575-1.394,0.983c-0.684,0.699-0.72,1.778-0.893,2.741c-0.173,0.969-0.52,1.896-0.865,2.817
	c-0.353,0.941-0.707,1.884-1.06,2.825c-0.062,0.166-0.147,0.341-0.264,0.47c2.045,5.215,4.354,6.888,4.354,6.888
	c-0.29,0.719-0.65,0.328-0.65,0.328s-1.123-1.494-2.324-3.361c-1.034-0.392-2.2-0.239-3.26,0.08
	c-0.059,0.017-0.118,0.036-0.178,0.055c-0.574,0.776-1.724,1.061-2.133,1.942c-0.357,0.771-0.001,1.725-0.332,2.508
	c-0.16,0.376-0.462,0.671-0.729,0.981c-0.536,0.627-0.946,1.361-1.2,2.146c-0.157-0.165-0.333-0.339-0.561-0.364
	c0.964-0.839,1.657-1.983,1.952-3.227C190.885,507.343,190.939,506.946,191.043,506.561"/>
<path fill="#ECB08D" d="M195.172,476.381c0.589,0.849,1.179,1.771,1.211,2.804c0.022,0.662-0.191,1.311-0.462,1.915
	c-0.331,0.736-0.771,1.451-1.43,1.917c-1.298,0.916-3.059,0.647-4.618,0.339c-0.475-0.095-0.95-0.188-1.424-0.281
	c-0.355-0.07-0.716-0.143-1.03-0.318c-0.94-0.524-1.175-1.751-1.263-2.823c-0.144-1.753-0.064-3.755,1.245-4.931
	c0.733-0.658,1.731-0.93,2.701-1.105c0.732-0.133,1.496-0.223,2.215-0.028C193.568,474.205,194.434,475.316,195.172,476.381"/>
<path fill="#ECB08D" d="M213.774,495.242c0.589,0.85,1.179,1.772,1.211,2.805c0.021,0.661-0.191,1.311-0.462,1.915
	c-0.331,0.735-0.771,1.451-1.43,1.916c-1.298,0.917-3.059,0.647-4.618,0.339c-0.475-0.094-0.95-0.187-1.425-0.28
	c-0.354-0.07-0.715-0.144-1.03-0.318c-0.939-0.524-1.175-1.752-1.263-2.823c-0.143-1.754-0.063-3.755,1.245-4.931
	c0.734-0.658,1.731-0.93,2.701-1.105c0.733-0.133,1.497-0.223,2.216-0.028C212.17,493.067,213.036,494.178,213.774,495.242"/>
<path fill="#ECB08D" d="M207.488,484.105c0.589,0.849,1.179,1.771,1.211,2.804c0.021,0.663-0.191,1.312-0.463,1.916
	c-0.33,0.735-0.77,1.451-1.429,1.916c-1.299,0.917-3.059,0.647-4.618,0.339c-0.475-0.094-0.95-0.187-1.425-0.281
	c-0.354-0.069-0.715-0.142-1.03-0.317c-0.939-0.524-1.175-1.751-1.263-2.824c-0.144-1.753-0.063-3.754,1.245-4.93
	c0.734-0.658,1.731-0.929,2.701-1.105c0.733-0.133,1.497-0.223,2.216-0.028C205.883,481.931,206.749,483.042,207.488,484.105"/>
<path fill="#ECB08D" d="M180.512,487.813c-0.826-1.334-1.189-3.089-0.542-4.44c0.884-1.849,3.48-2.269,5.314-2.157
	c1.149,0.069,2.309,0.473,3.125,1.284c1.876,1.869,0.818,5.815-1.225,7.202c-1.554,1.054-4.094,0.547-5.492-0.542
	C181.248,488.813,180.843,488.347,180.512,487.813"/>
<path fill="#ECB08D" d="M196.034,501.637c-0.826-1.334-1.189-3.089-0.542-4.44c0.884-1.85,3.481-2.27,5.314-2.159
	c1.149,0.07,2.31,0.474,3.125,1.286c1.877,1.868,0.819,5.815-1.224,7.2c-1.555,1.056-4.094,0.548-5.493-0.54
	C196.77,502.637,196.365,502.171,196.034,501.637"/>
<path fill="#ECB08D" d="M194.699,512.145c-0.826-1.334-1.189-3.089-0.542-4.44c0.884-1.849,3.481-2.27,5.314-2.157
	c1.149,0.069,2.309,0.472,3.125,1.284c1.876,1.868,0.818,5.815-1.225,7.201c-1.555,1.055-4.094,0.548-5.493-0.541
	C195.436,513.145,195.03,512.679,194.699,512.145"/>
<path fill="#ECB08D" d="M189.262,500.73c0.589,0.85,1.179,1.771,1.211,2.805c0.022,0.661-0.191,1.311-0.463,1.915
	c-0.331,0.735-0.77,1.45-1.43,1.916c-1.298,0.917-3.059,0.647-4.618,0.339c-0.475-0.094-0.95-0.188-1.425-0.281
	c-0.354-0.07-0.715-0.143-1.029-0.318c-0.94-0.523-1.175-1.751-1.263-2.822c-0.144-1.754-0.064-3.755,1.245-4.931
	c0.734-0.658,1.731-0.93,2.701-1.105c0.733-0.134,1.497-0.224,2.216-0.028C187.657,498.556,188.523,499.666,189.262,500.73"/>
<path fill="#ECB08D" d="M182.637,515.751c-0.826-1.334-1.189-3.089-0.542-4.44c0.885-1.849,3.482-2.269,5.315-2.158
	c1.149,0.07,2.309,0.474,3.125,1.285c1.877,1.869,0.818,5.815-1.224,7.201c-1.555,1.055-4.094,0.547-5.493-0.541
	C183.373,516.752,182.968,516.285,182.637,515.751"/>
</svg>
